# xmcd
#
# Track frame offsets:
#	150
#	13060
#	28812
#	42397
#	57327
#	71240
#	84155
#	98635
#	113497
#	128125
#	141107
#	154045
#	167702
#	182827
#	197417
#	211420
#
# Disc length: 3020 seconds
#
# Revision: 0
# Processed by: cddbd v1.5.2PL0 Copyright (c) Steve Scherf et al.
# Submitted via: EasyCDDAExtractor 16.0.6.1
#
DISCID=d70bca10
DTITLE=Μενιδιάτης Μιχάλης  - Αξέχαστες επιτυχίες-Μενιδιάτης Μιχ. 2
DYEAR=1983
DGENRE=Λαϊκή
TTITLE0=Η ζήλεια και το φίδι [Ν. Δαλέζιου]
TTITLE1=Στο 13 το κελί [Γ. Λαύκα]
TTITLE2=Φτάνει, φτάνει [Β. Τσιτσάνη]
TTITLE3=Για το χατήρι μιάς παλιάς αγάπης [Γ. Κόρου]
TTITLE4=Τόσα χρόνια σαν τυφλός [Α. Καλδάρα]
TTITLE5=Κάψε με να ησυχάσω [Γ. Καραμπεσίνη]
TTITLE6=Τα δυό σου μάτια με ξεκουράζουν [Α. Καλδάρα]
TTITLE7=Πες μου χάρε [Π. Πέτσα-Δ. Γκούτη]
TTITLE8=Δεν πονώ κανέναν πια [Ν. Δαλέζιου]
TTITLE9=Χάνω απόψε μιά ψυχή [Β. Τσιτσάνη]
TTITLE10=Σβύσε τις ελπίδες σου [Γ. Καραμπεσίνη]
TTITLE11=Είδα τα μάτια σου κλαμμένα [Ά. Πάνου]
TTITLE12=Είν' η ζωή μου άδεια [Γ. Καραμπεσίνη]
TTITLE13=Βραδιά γεμάτη πόνο [Β. Καραπατάκη]
TTITLE14=Μη με τυραννάς [Γ. Μπιθικώτση]
TTITLE15=Ο Ρουμπής [Ά. Πάνου]
EXTD=
EXTT0=
EXTT1=
EXTT2=
EXTT3=
EXTT4=
EXTT5=
EXTT6=
EXTT7=
EXTT8=
EXTT9=
EXTT10=
EXTT11=
EXTT12=
EXTT13=
EXTT14=
EXTT15=
PLAYORDER=
